<svg xmlns="http://www.w3.org/2000/svg" viewBox="0 0 506.28 149.12"><defs><style>.cls-1{fill:#fff;}</style></defs><title>MUJI HOTEL SHENZHEN</title><polygon class="cls-1" points="402.1 2 402.1 17.63 387.62 17.63 387.62 83.39 368.34 83.39 368.34 17.63 353.19 17.63 353.19 2 402.1 2 402.1 2"/><polygon class="cls-1" points="481.07 2.06 481.07 67.82 506.28 67.82 506.28 83.43 461.8 83.43 461.8 2.06 481.07 2.06 481.07 2.06"/><polygon class="cls-1" points="452.38 2.06 452.38 17.63 427.3 17.63 427.3 34.45 452.38 34.45 452.38 50.06 427.3 50.06 427.3 67.78 452.75 67.78 452.75 83.39 408.15 83.39 408.15 2.06 452.38 2.06 452.38 2.06"/><rect class="cls-1" x="184.45" y="1.92" width="19.22" height="81.48"/><rect class="cls-1" x="184.45" y="1.92" width="19.22" height="81.48"/><path class="cls-1" d="M532,395.37" transform="translate(-429.72 -310.2)"/><polygon class="cls-1" points="51.86 25.01 40.86 83.4 27.42 83.39 16.36 25 16.36 83.39 0 83.39 0 1.92 24.49 1.9 34.11 52.87 43.74 1.92 68.21 1.92 68.21 83.4 51.86 83.4 51.86 25.01"/><path class="cls-1" d="M557.36,373.23c0,14.08-11.47,22.24-25.54,22.24s-25.55-8.17-25.55-22.24l-.05-61.11h19.22l0,60.76a6.35,6.35,0,0,0,12.71,0l0-60.76h19.22Z" transform="translate(-429.72 -310.2)"/><path class="cls-1" d="M605.87,375.76c0,12.3-10,19.78-22.31,19.78s-22.28-7.48-22.28-19.78c0-3.08,0-7.59,0-11.9h17.08v11.92a4.17,4.17,0,0,0,8.34,0V312.12h19.22Z" transform="translate(-429.72 -310.2)"/><polygon class="cls-1" points="272.33 1.92 272.33 33.27 259.3 33.27 259.3 1.92 240.08 1.92 240.08 83.39 259.29 83.39 259.3 49.56 272.33 49.56 272.33 83.39 291.54 83.39 291.55 1.92 272.33 1.92"/><polygon class="cls-1" points="272.33 1.92 272.33 33.27 259.3 33.27 259.3 1.92 240.08 1.92 240.08 83.39 259.29 83.39 259.3 49.56 272.33 49.56 272.33 83.39 291.54 83.39 291.55 1.92 272.33 1.92"/><path class="cls-1" d="M780,337.08c-.15-2-.68-13.71-7.15-20.31-6.88-7-18.69-6.56-18.69-6.56s-11.8-.45-18.68,6.56c-6.48,6.6-7,18.36-7.16,20.31s-.26,15.85-.26,15.85.11,13.92.27,15.85.67,13.71,7.15,20.31c6.89,7,18.68,6.56,18.68,6.56s11.81.44,18.69-6.56c6.47-6.6,7-18.37,7.15-20.31s.27-15.85.27-15.85S780.18,339,780,337.08ZM761,370.93c-.21,9.48-6.19,9.35-6.77,9.35s-6.56.13-6.76-9.35c-.22-10.23-.45-13.15-.45-18s.23-7.75.45-18c.2-9.48,6.18-9.35,6.76-9.35s6.56-.12,6.76,9.35c.24,10.25.44,13.15.44,18S761.19,360.7,761,370.93Z" transform="translate(-429.72 -310.2)"/><path class="cls-1" d="M575.29,451.1c.39,4.54,3.41,6.19,7.28,6.19,4.54,0,6.43-2.46,6.43-5.24,0-7.84-15.43-2.64-15.43-12.59,0-3.52,2.92-6.79,8.58-6.79s8.54,3.45,8.51,7.56h-2.29c0-3.87-3-5.52-6.22-5.52-4.85,0-6.61,3-6.19,5.59,1.09,6.54,15.43,1.83,15.43,11.64,0,4.64-3.41,7.38-9.25,7.38-5.27,0-9.18-2.74-9.18-8.23Z" transform="translate(-429.72 -310.2)"/><path class="cls-1" d="M600.25,458.65V433.34h2.39V444.2h15V433.34H620v25.31h-2.39V446.24h-15v12.41Z" transform="translate(-429.72 -310.2)"/><path class="cls-1" d="M630.34,458.65V433.34h16.84v2H632.73v9.14h13v2h-13v10.05h14.8v2Z" transform="translate(-429.72 -310.2)"/><path class="cls-1" d="M659.16,436.58h-.07v22.08H656.7V433.34h2.71L674,455.45h.07V433.34h2.39v25.31h-2.78Z" transform="translate(-429.72 -310.2)"/><path class="cls-1" d="M685.91,458.65v-2l16.21-21.27H687.28v-2h17.79v2l-16.21,21.27h16.31v2Z" transform="translate(-429.72 -310.2)"/><path class="cls-1" d="M714.66,458.65V433.34H717V444.2h15V433.34h2.39v25.31H732V446.24H717v12.41Z" transform="translate(-429.72 -310.2)"/><path class="cls-1" d="M744.75,458.65V433.34h16.84v2H747.14v9.14h13v2h-13v10.05h14.8v2Z" transform="translate(-429.72 -310.2)"/><path class="cls-1" d="M773.92,436.58h-.07v22.08h-2.39V433.34h2.71l14.63,22.11h.07V433.34h2.39v25.31h-2.78Z" transform="translate(-429.72 -310.2)"/><rect class="cls-1" x="127.67" y="104.78" width="251.11" height="0.71"/></svg>